<svg width="20" height="20" viewBox="0 0 20 20" fill="none" xmlns="http://www.w3.org/2000/svg">
<path fill-rule="evenodd" clip-rule="evenodd" d="M2.41667 9.16669C2.41667 5.43876 5.43875 2.41669 9.16667 2.41669C12.8946 2.41669 15.9167 5.43876 15.9167 9.16669C15.9167 12.8946 12.8946 15.9167 9.16667 15.9167C5.43875 15.9167 2.41667 12.8946 2.41667 9.16669ZM9.16667 0.916687C4.61032 0.916687 0.916672 4.61034 0.916672 9.16669C0.916672 13.723 4.61032 17.4167 9.16667 17.4167C11.1748 17.4167 13.0153 16.6992 14.446 15.5066L17.3863 18.447C17.6792 18.7399 18.1541 18.7399 18.447 18.447C18.7399 18.1541 18.7399 17.6793 18.447 17.3864L15.5066 14.446C16.6992 13.0154 17.4167 11.1748 17.4167 9.16669C17.4167 4.61034 13.723 0.916687 9.16667 0.916687Z" fill="white"/>
</svg>
