<svg width="21" height="20" viewBox="0 0 21 20" fill="none" xmlns="http://www.w3.org/2000/svg">
<g clip-path="url(#clip0_1422_409)">
<path fill-rule="evenodd" clip-rule="evenodd" d="M15.5834 8.71145C15.5834 5.03787 11.2323 3.10005 8.50174 5.55754C8.19386 5.83464 7.71964 5.80968 7.44255 5.50179C7.16546 5.19391 7.19042 4.71969 7.4983 4.4426C11.1941 1.11636 17.0834 3.73921 17.0834 8.71145V10.6894L19.1364 8.63642C19.4292 8.34352 19.9041 8.34352 20.197 8.63642C20.4899 8.92931 20.4899 9.40418 20.197 9.69708L16.8679 13.0262L16.8595 13.0346L16.3334 13.5607L15.803 13.0304L12.4697 9.69708C12.1768 9.40418 12.1768 8.92931 12.4697 8.63642C12.7626 8.34352 13.2375 8.34352 13.5304 8.63642L15.5834 10.6895V8.71145ZM4.66668 6.43943L4.13635 6.96976L0.803013 10.3031C0.51012 10.596 0.51012 11.0709 0.803013 11.3638C1.09591 11.6566 1.57078 11.6566 1.86367 11.3638L3.91664 9.31079L3.91664 11.2887C3.91664 16.261 9.80589 18.8838 13.5017 15.5576C13.8096 15.2805 13.8346 14.8063 13.5575 14.4984C13.2804 14.1905 12.8062 14.1655 12.4983 14.4426C9.76773 16.9001 5.41664 14.9623 5.41664 11.2887L5.41664 9.31071L7.46968 11.3638C7.76257 11.6566 8.23745 11.6566 8.53034 11.3638C8.82323 11.0709 8.82323 10.596 8.53034 10.3031L5.19701 6.96976L4.66668 6.43943Z" fill="white"/>
</g>
<defs>
<clipPath id="clip0_1422_409">
<rect width="20" height="20" fill="white" transform="translate(0.5)"/>
</clipPath>
</defs>
</svg>
